<svg xmlns="http://www.w3.org/2000/svg" viewBox="0 0 64 64" fill="none">
  <path d="M10 18v37h31" stroke="#786B5A" stroke-width="2" stroke-linecap="round" stroke-linejoin="round"/>
  <path d="M16 10h25l8 8v34H16V10Z" fill="#FFFDF3" stroke="#786B5A" stroke-width="2" stroke-linejoin="round"/>
  <path d="M41 10v9h8" stroke="#786B5A" stroke-width="2" stroke-linejoin="round"/>
  <path d="M22 25h21v13H22V25Z" fill="#F7F5E8" stroke="#786B5A" stroke-width="1.8" stroke-linejoin="round"/>
  <path d="M29 25v13M36 25v13M22 31.5h21" stroke="#A3A86B" stroke-width="1.4"/>
  <path d="M22 43h8M22 47h6" stroke="#786B5A" stroke-width="1.8" stroke-linecap="round"/>
  <rect x="32" y="42" width="10" height="10" rx="2.2" fill="#E8EBC3" stroke="#786B5A" stroke-width="1.5"/>
  <path d="m35 45 4 4m0-4-4 4" stroke="#72782E" stroke-width="1.6" stroke-linecap="round"/>
  <rect x="44" y="42" width="10" height="10" rx="2.2" fill="#EEE9DD" stroke="#786B5A" stroke-width="1.5"/>
  <path d="M47 45v4m4-4v4m-4-2h4" stroke="#786B5A" stroke-width="1.6" stroke-linecap="round"/>
</svg>
